<mxfile host="Electron" agent="Mozilla/5.0 (X11; Linux x86_64) AppleWebKit/537.36 (KHTML, like Gecko) draw.io/27.0.5 Chrome/134.0.6998.205 Electron/35.3.0 Safari/537.36" version="27.0.5">
  <diagram name="Seite-1" id="WjEw90NLl4CJwM5A-Xkh">
    <mxGraphModel dx="782" dy="482" grid="1" gridSize="10" guides="1" tooltips="1" connect="1" arrows="1" fold="1" page="1" pageScale="1" pageWidth="827" pageHeight="1169" math="0" shadow="0">
      <root>
        <mxCell id="0" />
        <mxCell id="1" parent="0" />
        <mxCell id="KqbgtqUS3R-qkDuxuyXO-180" value="" style="rounded=1;whiteSpace=wrap;html=1;align=center;verticalAlign=middle;fontFamily=Helvetica;fontSize=11;labelBackgroundColor=none;arcSize=1;dashed=1;" vertex="1" parent="1">
          <mxGeometry x="110" y="50" width="550" height="500" as="geometry" />
        </mxCell>
        <mxCell id="KqbgtqUS3R-qkDuxuyXO-144" value="" style="group" vertex="1" connectable="0" parent="1">
          <mxGeometry x="120" y="370" width="530" height="60" as="geometry" />
        </mxCell>
        <mxCell id="KqbgtqUS3R-qkDuxuyXO-120" value="&#xa;&#xa;HAL Peripheral Blocks" style="group;rounded=1;fillColor=#d5e8d4;strokeColor=#82b366;" vertex="1" connectable="0" parent="KqbgtqUS3R-qkDuxuyXO-144">
          <mxGeometry width="530" height="60" as="geometry" />
        </mxCell>
        <mxCell id="KqbgtqUS3R-qkDuxuyXO-131" value="SPI" style="rounded=1;whiteSpace=wrap;html=1;fillColor=#d5e8d4;strokeColor=#82b366;" vertex="1" parent="KqbgtqUS3R-qkDuxuyXO-144">
          <mxGeometry x="76.33262260127933" y="10" width="54.37100213219617" height="20" as="geometry" />
        </mxCell>
        <mxCell id="KqbgtqUS3R-qkDuxuyXO-132" value="I2C" style="rounded=1;whiteSpace=wrap;html=1;fillColor=#d5e8d4;strokeColor=#82b366;" vertex="1" parent="KqbgtqUS3R-qkDuxuyXO-144">
          <mxGeometry x="205.73560767590618" y="10" width="54.37100213219617" height="20" as="geometry" />
        </mxCell>
        <mxCell id="KqbgtqUS3R-qkDuxuyXO-133" value="I2S" style="rounded=1;whiteSpace=wrap;html=1;fillColor=#d5e8d4;strokeColor=#82b366;" vertex="1" parent="KqbgtqUS3R-qkDuxuyXO-144">
          <mxGeometry x="270.9808102345416" y="10" width="54.37100213219617" height="20" as="geometry" />
        </mxCell>
        <mxCell id="KqbgtqUS3R-qkDuxuyXO-134" value="SDIO" style="rounded=1;whiteSpace=wrap;html=1;fillColor=#d5e8d4;strokeColor=#82b366;" vertex="1" parent="KqbgtqUS3R-qkDuxuyXO-144">
          <mxGeometry x="336.226012793177" y="10" width="54.37100213219617" height="20" as="geometry" />
        </mxCell>
        <mxCell id="KqbgtqUS3R-qkDuxuyXO-135" value="UART" style="rounded=1;whiteSpace=wrap;html=1;fillColor=#d5e8d4;strokeColor=#82b366;" vertex="1" parent="KqbgtqUS3R-qkDuxuyXO-144">
          <mxGeometry x="401.47121535181236" y="10" width="54.37100213219617" height="20" as="geometry" />
        </mxCell>
        <mxCell id="KqbgtqUS3R-qkDuxuyXO-140" value="SPI" style="rounded=1;whiteSpace=wrap;html=1;fillColor=#d5e8d4;strokeColor=#82b366;" vertex="1" parent="KqbgtqUS3R-qkDuxuyXO-144">
          <mxGeometry x="465.62899786780395" y="10" width="54.37100213219617" height="20" as="geometry" />
        </mxCell>
        <mxCell id="KqbgtqUS3R-qkDuxuyXO-141" value="ADC" style="rounded=1;whiteSpace=wrap;html=1;fillColor=#d5e8d4;strokeColor=#82b366;" vertex="1" parent="KqbgtqUS3R-qkDuxuyXO-144">
          <mxGeometry x="10" y="10" width="54.37100213219617" height="20" as="geometry" />
        </mxCell>
        <mxCell id="KqbgtqUS3R-qkDuxuyXO-142" value="GPIO" style="rounded=1;whiteSpace=wrap;html=1;fillColor=#d5e8d4;strokeColor=#82b366;" vertex="1" parent="KqbgtqUS3R-qkDuxuyXO-144">
          <mxGeometry x="140.49040511727083" y="10" width="54.37100213219617" height="20" as="geometry" />
        </mxCell>
        <mxCell id="805-J8ZQqyjE01Ruiza4-4" value="" style="group;rounded=1;" parent="1" vertex="1" connectable="0">
          <mxGeometry x="120" y="430" width="550" height="80" as="geometry" />
        </mxCell>
        <mxCell id="KqbgtqUS3R-qkDuxuyXO-153" style="edgeStyle=orthogonalEdgeStyle;shape=connector;curved=0;rounded=1;orthogonalLoop=1;jettySize=auto;html=1;exitX=0.5;exitY=0;exitDx=0;exitDy=0;strokeColor=default;align=center;verticalAlign=middle;fontFamily=Helvetica;fontSize=11;fontColor=default;labelBackgroundColor=default;startFill=0;endArrow=none;flowAnimation=0;" edge="1" parent="805-J8ZQqyjE01Ruiza4-4" source="805-J8ZQqyjE01Ruiza4-1">
          <mxGeometry relative="1" as="geometry">
            <mxPoint x="264.8571428571429" as="targetPoint" />
          </mxGeometry>
        </mxCell>
        <mxCell id="805-J8ZQqyjE01Ruiza4-1" value="Hardware Abstraction Layer (HAL)" style="rounded=1;whiteSpace=wrap;html=1;fillColor=#dae8fc;strokeColor=#6c8ebf;verticalAlign=top;" parent="805-J8ZQqyjE01Ruiza4-4" vertex="1">
          <mxGeometry y="10" width="530" height="70" as="geometry" />
        </mxCell>
        <mxCell id="805-J8ZQqyjE01Ruiza4-2" value="HAL Functions" style="rounded=1;whiteSpace=wrap;html=1;fillColor=#dae8fc;strokeColor=#6c8ebf;" parent="805-J8ZQqyjE01Ruiza4-4" vertex="1">
          <mxGeometry x="10" y="40" width="100" height="30" as="geometry" />
        </mxCell>
        <mxCell id="805-J8ZQqyjE01Ruiza4-3" value="Interrupt callbacks" style="rounded=1;whiteSpace=wrap;html=1;fillColor=#dae8fc;strokeColor=#6c8ebf;" parent="805-J8ZQqyjE01Ruiza4-4" vertex="1">
          <mxGeometry x="120" y="40" width="130" height="30" as="geometry" />
        </mxCell>
        <mxCell id="KqbgtqUS3R-qkDuxuyXO-118" value="Clock Configuration" style="rounded=1;whiteSpace=wrap;html=1;fillColor=#dae8fc;strokeColor=#6c8ebf;" vertex="1" parent="805-J8ZQqyjE01Ruiza4-4">
          <mxGeometry x="260" y="40" width="140" height="30" as="geometry" />
        </mxCell>
        <mxCell id="KqbgtqUS3R-qkDuxuyXO-119" value="int. Memory config" style="rounded=1;whiteSpace=wrap;html=1;fillColor=#dae8fc;strokeColor=#6c8ebf;" vertex="1" parent="805-J8ZQqyjE01Ruiza4-4">
          <mxGeometry x="410" y="40" width="110" height="30" as="geometry" />
        </mxCell>
        <mxCell id="805-J8ZQqyjE01Ruiza4-11" value="File" style="rounded=1;whiteSpace=wrap;html=1;fillColor=#e1d5e7;strokeColor=#9673a6;" parent="1" vertex="1">
          <mxGeometry x="390" y="280" width="260" height="20" as="geometry" />
        </mxCell>
        <mxCell id="805-J8ZQqyjE01Ruiza4-45" value="&lt;div&gt;Platform&lt;/div&gt;&lt;div&gt;&lt;font style=&quot;font-size: 7px;&quot;&gt;grouping peripheral instances&lt;/font&gt;&lt;/div&gt;" style="rounded=1;whiteSpace=wrap;html=1;strokeColor=#d6b656;align=center;verticalAlign=middle;fontFamily=Helvetica;fontSize=11;labelBackgroundColor=none;fillColor=#fff2cc;" parent="1" vertex="1">
          <mxGeometry x="120" y="110" width="170" height="30" as="geometry" />
        </mxCell>
        <mxCell id="KqbgtqUS3R-qkDuxuyXO-66" style="edgeStyle=orthogonalEdgeStyle;shape=connector;curved=0;rounded=0;orthogonalLoop=1;jettySize=auto;html=1;exitX=0.5;exitY=1;exitDx=0;exitDy=0;entryX=0.5;entryY=0;entryDx=0;entryDy=0;strokeColor=default;align=center;verticalAlign=middle;fontFamily=Helvetica;fontSize=11;fontColor=default;labelBackgroundColor=default;startFill=0;endArrow=none;flowAnimation=0;" edge="1" parent="1" source="805-J8ZQqyjE01Ruiza4-50" target="805-J8ZQqyjE01Ruiza4-45">
          <mxGeometry relative="1" as="geometry">
            <Array as="points">
              <mxPoint x="385" y="100" />
              <mxPoint x="205" y="100" />
            </Array>
          </mxGeometry>
        </mxCell>
        <mxCell id="KqbgtqUS3R-qkDuxuyXO-67" style="edgeStyle=orthogonalEdgeStyle;shape=connector;curved=0;rounded=0;orthogonalLoop=1;jettySize=auto;html=1;exitX=0.5;exitY=1;exitDx=0;exitDy=0;entryX=0.5;entryY=0;entryDx=0;entryDy=0;strokeColor=default;align=center;verticalAlign=middle;fontFamily=Helvetica;fontSize=11;fontColor=default;labelBackgroundColor=default;startFill=0;endArrow=none;flowAnimation=0;" edge="1" parent="1" source="805-J8ZQqyjE01Ruiza4-50" target="805-J8ZQqyjE01Ruiza4-60">
          <mxGeometry relative="1" as="geometry" />
        </mxCell>
        <mxCell id="KqbgtqUS3R-qkDuxuyXO-69" style="edgeStyle=orthogonalEdgeStyle;shape=connector;curved=0;rounded=0;orthogonalLoop=1;jettySize=auto;html=1;exitX=0.5;exitY=1;exitDx=0;exitDy=0;entryX=0.5;entryY=0;entryDx=0;entryDy=0;strokeColor=default;align=center;verticalAlign=middle;fontFamily=Helvetica;fontSize=11;fontColor=default;labelBackgroundColor=default;startFill=0;endArrow=none;flowAnimation=0;" edge="1" parent="1" source="805-J8ZQqyjE01Ruiza4-50" target="805-J8ZQqyjE01Ruiza4-55">
          <mxGeometry relative="1" as="geometry">
            <Array as="points">
              <mxPoint x="385" y="100" />
              <mxPoint x="565" y="100" />
            </Array>
          </mxGeometry>
        </mxCell>
        <mxCell id="805-J8ZQqyjE01Ruiza4-50" value="&lt;div&gt;BSP_VoiceMailBox.h&lt;/div&gt;&lt;div&gt;&lt;font style=&quot;font-size: 7px;&quot;&gt;Application interface&lt;/font&gt;&lt;/div&gt;" style="rounded=1;whiteSpace=wrap;html=1;strokeColor=#d6b656;align=center;verticalAlign=middle;fontFamily=Helvetica;fontSize=11;labelBackgroundColor=none;fillColor=#fff2cc;" parent="1" vertex="1">
          <mxGeometry x="120" y="60" width="530" height="30" as="geometry" />
        </mxCell>
        <mxCell id="KqbgtqUS3R-qkDuxuyXO-7" style="edgeStyle=orthogonalEdgeStyle;shape=connector;curved=0;rounded=1;orthogonalLoop=1;jettySize=auto;html=1;exitX=0.5;exitY=0;exitDx=0;exitDy=0;entryX=0.5;entryY=1;entryDx=0;entryDy=0;strokeColor=default;align=center;verticalAlign=middle;fontFamily=Helvetica;fontSize=11;fontColor=default;labelBackgroundColor=default;startFill=0;endArrow=none;" edge="1" parent="1" source="805-J8ZQqyjE01Ruiza4-41" target="805-J8ZQqyjE01Ruiza4-1">
          <mxGeometry relative="1" as="geometry" />
        </mxCell>
        <mxCell id="805-J8ZQqyjE01Ruiza4-41" value="generated processor specific files through STM32Cube" style="rounded=1;whiteSpace=wrap;html=1;fontFamily=Helvetica;fontSize=11;labelBackgroundColor=none;fillColor=#f5f5f5;strokeColor=#666666;fontColor=#333333;" parent="1" vertex="1">
          <mxGeometry x="120" y="520" width="530" height="20" as="geometry" />
        </mxCell>
        <mxCell id="KqbgtqUS3R-qkDuxuyXO-65" style="edgeStyle=orthogonalEdgeStyle;shape=connector;curved=0;rounded=1;orthogonalLoop=1;jettySize=auto;html=1;exitX=0.5;exitY=1;exitDx=0;exitDy=0;entryX=0.5;entryY=0;entryDx=0;entryDy=0;strokeColor=default;align=center;verticalAlign=middle;fontFamily=Helvetica;fontSize=11;fontColor=default;labelBackgroundColor=default;startFill=0;endArrow=none;flowAnimation=0;" edge="1" parent="1" source="805-J8ZQqyjE01Ruiza4-52" target="805-J8ZQqyjE01Ruiza4-50">
          <mxGeometry relative="1" as="geometry" />
        </mxCell>
        <mxCell id="805-J8ZQqyjE01Ruiza4-52" value="User Application" style="rounded=1;whiteSpace=wrap;html=1;strokeColor=#666666;align=center;verticalAlign=middle;fontFamily=Helvetica;fontSize=11;labelBackgroundColor=none;fillColor=#f5f5f5;fontColor=#333333;" parent="1" vertex="1">
          <mxGeometry x="120" y="10" width="530" height="30" as="geometry" />
        </mxCell>
        <mxCell id="KqbgtqUS3R-qkDuxuyXO-107" style="edgeStyle=orthogonalEdgeStyle;shape=connector;curved=0;rounded=0;orthogonalLoop=1;jettySize=auto;html=1;exitX=0.5;exitY=0;exitDx=0;exitDy=0;strokeColor=default;align=center;verticalAlign=middle;fontFamily=Helvetica;fontSize=11;fontColor=default;labelBackgroundColor=default;startFill=0;endArrow=none;flowAnimation=0;" edge="1" parent="1" source="KqbgtqUS3R-qkDuxuyXO-1">
          <mxGeometry relative="1" as="geometry">
            <mxPoint x="205" y="140" as="targetPoint" />
          </mxGeometry>
        </mxCell>
        <mxCell id="KqbgtqUS3R-qkDuxuyXO-1" value="NFC" style="rounded=1;whiteSpace=wrap;html=1;fillColor=#d5e8d4;strokeColor=#82b366;" vertex="1" parent="1">
          <mxGeometry x="180" y="160" width="50" height="30" as="geometry" />
        </mxCell>
        <mxCell id="KqbgtqUS3R-qkDuxuyXO-96" style="edgeStyle=orthogonalEdgeStyle;shape=connector;curved=0;rounded=0;orthogonalLoop=1;jettySize=auto;html=1;exitX=0.5;exitY=0;exitDx=0;exitDy=0;entryX=0.5;entryY=1;entryDx=0;entryDy=0;strokeColor=default;align=center;verticalAlign=middle;fontFamily=Helvetica;fontSize=11;fontColor=default;labelBackgroundColor=default;startFill=0;endArrow=none;flowAnimation=0;" edge="1" parent="1" source="805-J8ZQqyjE01Ruiza4-12" target="KqbgtqUS3R-qkDuxuyXO-71">
          <mxGeometry relative="1" as="geometry" />
        </mxCell>
        <mxCell id="805-J8ZQqyjE01Ruiza4-12" value="Audio Codec" style="rounded=1;whiteSpace=wrap;html=1;fillColor=#d5e8d4;strokeColor=#82b366;" parent="1" vertex="1">
          <mxGeometry x="300" y="230" width="80" height="30" as="geometry" />
        </mxCell>
        <mxCell id="805-J8ZQqyjE01Ruiza4-14" value="&lt;div&gt;ATCommand&lt;/div&gt;&lt;div&gt;Client&lt;/div&gt;" style="rounded=1;whiteSpace=wrap;html=1;fillColor=#d5e8d4;strokeColor=#82b366;" parent="1" vertex="1">
          <mxGeometry x="540" y="320" width="110" height="30" as="geometry" />
        </mxCell>
        <mxCell id="KqbgtqUS3R-qkDuxuyXO-76" style="edgeStyle=orthogonalEdgeStyle;shape=connector;curved=0;rounded=0;orthogonalLoop=1;jettySize=auto;html=1;exitX=0.5;exitY=1;exitDx=0;exitDy=0;entryX=0.5;entryY=0;entryDx=0;entryDy=0;strokeColor=default;align=center;verticalAlign=middle;fontFamily=Helvetica;fontSize=11;fontColor=default;labelBackgroundColor=default;startFill=0;endArrow=none;flowAnimation=0;" edge="1" parent="1" source="805-J8ZQqyjE01Ruiza4-60" target="KqbgtqUS3R-qkDuxuyXO-71">
          <mxGeometry relative="1" as="geometry">
            <Array as="points">
              <mxPoint x="385" y="150" />
              <mxPoint x="340" y="150" />
            </Array>
          </mxGeometry>
        </mxCell>
        <mxCell id="KqbgtqUS3R-qkDuxuyXO-82" style="edgeStyle=orthogonalEdgeStyle;shape=connector;curved=0;rounded=0;orthogonalLoop=1;jettySize=auto;html=1;exitX=0.5;exitY=1;exitDx=0;exitDy=0;entryX=0.5;entryY=0;entryDx=0;entryDy=0;strokeColor=default;align=center;verticalAlign=middle;fontFamily=Helvetica;fontSize=11;fontColor=default;labelBackgroundColor=default;startFill=0;endArrow=none;flowAnimation=0;" edge="1" parent="1" source="KqbgtqUS3R-qkDuxuyXO-158" target="KqbgtqUS3R-qkDuxuyXO-72">
          <mxGeometry relative="1" as="geometry">
            <Array as="points">
              <mxPoint x="385" y="150" />
              <mxPoint x="520" y="150" />
            </Array>
          </mxGeometry>
        </mxCell>
        <mxCell id="805-J8ZQqyjE01Ruiza4-60" value="AudioPlayer" style="rounded=1;whiteSpace=wrap;html=1;strokeColor=#9673a6;align=center;verticalAlign=middle;fontFamily=Helvetica;fontSize=11;labelBackgroundColor=none;fillColor=#e1d5e7;" parent="1" vertex="1">
          <mxGeometry x="300.25" y="110" width="169.5" height="30" as="geometry" />
        </mxCell>
        <mxCell id="KqbgtqUS3R-qkDuxuyXO-80" style="edgeStyle=orthogonalEdgeStyle;shape=connector;curved=0;rounded=0;orthogonalLoop=1;jettySize=auto;html=1;exitX=0.5;exitY=1;exitDx=0;exitDy=0;entryX=0.5;entryY=0;entryDx=0;entryDy=0;strokeColor=default;align=center;verticalAlign=middle;fontFamily=Helvetica;fontSize=11;fontColor=default;labelBackgroundColor=default;startFill=0;endArrow=none;flowAnimation=0;" edge="1" parent="1" source="805-J8ZQqyjE01Ruiza4-55" target="KqbgtqUS3R-qkDuxuyXO-71">
          <mxGeometry relative="1" as="geometry">
            <Array as="points">
              <mxPoint x="565" y="150" />
              <mxPoint x="340" y="150" />
            </Array>
          </mxGeometry>
        </mxCell>
        <mxCell id="805-J8ZQqyjE01Ruiza4-55" value="AudioRecorder" style="rounded=1;whiteSpace=wrap;html=1;strokeColor=#9673a6;align=center;verticalAlign=middle;fontFamily=Helvetica;fontSize=11;labelBackgroundColor=none;fillColor=#e1d5e7;" parent="1" vertex="1">
          <mxGeometry x="480" y="110" width="170" height="30" as="geometry" />
        </mxCell>
        <mxCell id="KqbgtqUS3R-qkDuxuyXO-154" style="edgeStyle=orthogonalEdgeStyle;shape=connector;curved=0;rounded=0;orthogonalLoop=1;jettySize=auto;html=1;exitX=0.5;exitY=1;exitDx=0;exitDy=0;strokeColor=default;align=center;verticalAlign=middle;fontFamily=Helvetica;fontSize=11;fontColor=default;labelBackgroundColor=default;startFill=0;endArrow=none;flowAnimation=0;" edge="1" parent="1" source="805-J8ZQqyjE01Ruiza4-21">
          <mxGeometry relative="1" as="geometry">
            <mxPoint x="520" y="280" as="targetPoint" />
            <Array as="points">
              <mxPoint x="430" y="270" />
              <mxPoint x="520" y="270" />
            </Array>
          </mxGeometry>
        </mxCell>
        <mxCell id="805-J8ZQqyjE01Ruiza4-21" value="WAV Conv" style="rounded=1;whiteSpace=wrap;html=1;fillColor=#e1d5e7;strokeColor=#9673a6;" parent="1" vertex="1">
          <mxGeometry x="390.5" y="230" width="79" height="30" as="geometry" />
        </mxCell>
        <mxCell id="KqbgtqUS3R-qkDuxuyXO-71" value="Audio Ctrl Function" style="rounded=1;whiteSpace=wrap;html=1;fillColor=#d5e8d4;strokeColor=#82b366;" vertex="1" parent="1">
          <mxGeometry x="300.25" y="160" width="79.75" height="30" as="geometry" />
        </mxCell>
        <mxCell id="KqbgtqUS3R-qkDuxuyXO-81" style="edgeStyle=orthogonalEdgeStyle;shape=connector;curved=0;rounded=0;orthogonalLoop=1;jettySize=auto;html=1;exitX=0.5;exitY=0;exitDx=0;exitDy=0;entryX=0.5;entryY=1;entryDx=0;entryDy=0;strokeColor=default;align=center;verticalAlign=middle;fontFamily=Helvetica;fontSize=11;fontColor=default;labelBackgroundColor=default;startFill=0;endArrow=none;flowAnimation=0;" edge="1" parent="1" source="KqbgtqUS3R-qkDuxuyXO-160" target="805-J8ZQqyjE01Ruiza4-55">
          <mxGeometry relative="1" as="geometry">
            <Array as="points">
              <mxPoint x="520" y="150" />
              <mxPoint x="565" y="150" />
            </Array>
          </mxGeometry>
        </mxCell>
        <mxCell id="KqbgtqUS3R-qkDuxuyXO-83" style="edgeStyle=orthogonalEdgeStyle;shape=connector;curved=0;rounded=0;orthogonalLoop=1;jettySize=auto;html=1;exitX=0;exitY=0.5;exitDx=0;exitDy=0;entryX=1;entryY=0.5;entryDx=0;entryDy=0;strokeColor=default;align=center;verticalAlign=middle;fontFamily=Helvetica;fontSize=11;fontColor=default;labelBackgroundColor=default;startFill=0;endArrow=none;flowAnimation=0;" edge="1" parent="1" source="KqbgtqUS3R-qkDuxuyXO-72" target="KqbgtqUS3R-qkDuxuyXO-73">
          <mxGeometry relative="1" as="geometry" />
        </mxCell>
        <mxCell id="KqbgtqUS3R-qkDuxuyXO-84" style="edgeStyle=orthogonalEdgeStyle;shape=connector;curved=0;rounded=0;orthogonalLoop=1;jettySize=auto;html=1;exitX=1;exitY=0.5;exitDx=0;exitDy=0;entryX=0;entryY=0.5;entryDx=0;entryDy=0;strokeColor=default;align=center;verticalAlign=middle;fontFamily=Helvetica;fontSize=11;fontColor=default;labelBackgroundColor=default;startFill=0;endArrow=none;flowAnimation=0;" edge="1" parent="1" source="KqbgtqUS3R-qkDuxuyXO-72" target="KqbgtqUS3R-qkDuxuyXO-79">
          <mxGeometry relative="1" as="geometry" />
        </mxCell>
        <mxCell id="KqbgtqUS3R-qkDuxuyXO-97" style="edgeStyle=orthogonalEdgeStyle;shape=connector;curved=0;rounded=0;orthogonalLoop=1;jettySize=auto;html=1;exitX=0.5;exitY=1;exitDx=0;exitDy=0;entryX=0.5;entryY=0;entryDx=0;entryDy=0;strokeColor=default;align=center;verticalAlign=middle;fontFamily=Helvetica;fontSize=11;fontColor=default;labelBackgroundColor=default;startFill=0;endArrow=none;flowAnimation=0;" edge="1" parent="1" source="KqbgtqUS3R-qkDuxuyXO-72" target="805-J8ZQqyjE01Ruiza4-12">
          <mxGeometry relative="1" as="geometry">
            <Array as="points">
              <mxPoint x="520" y="200" />
              <mxPoint x="340" y="200" />
            </Array>
          </mxGeometry>
        </mxCell>
        <mxCell id="KqbgtqUS3R-qkDuxuyXO-72" value="Data Streaming" style="rounded=1;whiteSpace=wrap;html=1;fillColor=#e1d5e7;strokeColor=#9673a6;" vertex="1" parent="1">
          <mxGeometry x="480" y="160" width="80" height="30" as="geometry" />
        </mxCell>
        <mxCell id="KqbgtqUS3R-qkDuxuyXO-73" value="Data Decomp" style="rounded=1;whiteSpace=wrap;html=1;fillColor=#e1d5e7;strokeColor=#9673a6;" vertex="1" parent="1">
          <mxGeometry x="390" y="160" width="80" height="30" as="geometry" />
        </mxCell>
        <mxCell id="KqbgtqUS3R-qkDuxuyXO-79" value="Data Comp" style="rounded=1;whiteSpace=wrap;html=1;fillColor=#e1d5e7;strokeColor=#9673a6;" vertex="1" parent="1">
          <mxGeometry x="570" y="160" width="80" height="30" as="geometry" />
        </mxCell>
        <mxCell id="KqbgtqUS3R-qkDuxuyXO-110" style="edgeStyle=orthogonalEdgeStyle;shape=connector;curved=0;rounded=0;orthogonalLoop=1;jettySize=auto;html=1;exitX=0.5;exitY=1;exitDx=0;exitDy=0;strokeColor=default;align=center;verticalAlign=middle;fontFamily=Helvetica;fontSize=11;fontColor=default;labelBackgroundColor=default;startFill=0;endArrow=none;flowAnimation=0;" edge="1" parent="1" source="KqbgtqUS3R-qkDuxuyXO-86">
          <mxGeometry relative="1" as="geometry">
            <mxPoint x="520" y="280" as="targetPoint" />
          </mxGeometry>
        </mxCell>
        <mxCell id="KqbgtqUS3R-qkDuxuyXO-86" value="MP3 Conv" style="rounded=1;whiteSpace=wrap;html=1;fillColor=#ffe6cc;strokeColor=#d79b00;" vertex="1" parent="1">
          <mxGeometry x="480" y="230" width="80" height="30" as="geometry" />
        </mxCell>
        <mxCell id="KqbgtqUS3R-qkDuxuyXO-108" style="edgeStyle=orthogonalEdgeStyle;shape=connector;curved=0;rounded=0;orthogonalLoop=1;jettySize=auto;html=1;exitX=0.5;exitY=1;exitDx=0;exitDy=0;entryX=0.5;entryY=0;entryDx=0;entryDy=0;strokeColor=default;align=center;verticalAlign=middle;fontFamily=Helvetica;fontSize=11;fontColor=default;labelBackgroundColor=default;startFill=0;endArrow=none;flowAnimation=0;" edge="1" parent="1" source="KqbgtqUS3R-qkDuxuyXO-87" target="805-J8ZQqyjE01Ruiza4-11">
          <mxGeometry relative="1" as="geometry">
            <Array as="points">
              <mxPoint x="610" y="270" />
              <mxPoint x="520" y="270" />
            </Array>
          </mxGeometry>
        </mxCell>
        <mxCell id="KqbgtqUS3R-qkDuxuyXO-87" value="Other Conv&lt;br&gt;&lt;font style=&quot;font-size: 6px;&quot;&gt;(prepared)&lt;/font&gt;" style="rounded=1;whiteSpace=wrap;html=1;" vertex="1" parent="1">
          <mxGeometry x="570" y="230" width="80" height="30" as="geometry" />
        </mxCell>
        <mxCell id="KqbgtqUS3R-qkDuxuyXO-105" style="edgeStyle=orthogonalEdgeStyle;shape=connector;curved=0;rounded=0;orthogonalLoop=1;jettySize=auto;html=1;exitX=0.5;exitY=0;exitDx=0;exitDy=0;entryX=0.5;entryY=1;entryDx=0;entryDy=0;strokeColor=default;align=center;verticalAlign=middle;fontFamily=Helvetica;fontSize=11;fontColor=default;labelBackgroundColor=default;startFill=0;endArrow=none;flowAnimation=0;" edge="1" parent="1" source="KqbgtqUS3R-qkDuxuyXO-103" target="805-J8ZQqyjE01Ruiza4-45">
          <mxGeometry relative="1" as="geometry">
            <Array as="points">
              <mxPoint x="145" y="150" />
              <mxPoint x="205" y="150" />
            </Array>
          </mxGeometry>
        </mxCell>
        <mxCell id="KqbgtqUS3R-qkDuxuyXO-103" value="Analog In" style="rounded=1;whiteSpace=wrap;html=1;fillColor=#d5e8d4;strokeColor=#82b366;" vertex="1" parent="1">
          <mxGeometry x="120" y="160" width="50" height="30" as="geometry" />
        </mxCell>
        <mxCell id="KqbgtqUS3R-qkDuxuyXO-106" style="edgeStyle=orthogonalEdgeStyle;shape=connector;curved=0;rounded=0;orthogonalLoop=1;jettySize=auto;html=1;exitX=0.5;exitY=0;exitDx=0;exitDy=0;entryX=0.5;entryY=1;entryDx=0;entryDy=0;strokeColor=default;align=center;verticalAlign=middle;fontFamily=Helvetica;fontSize=11;fontColor=default;labelBackgroundColor=default;startFill=0;endArrow=none;flowAnimation=0;" edge="1" parent="1" source="KqbgtqUS3R-qkDuxuyXO-155" target="805-J8ZQqyjE01Ruiza4-45">
          <mxGeometry relative="1" as="geometry">
            <Array as="points" />
          </mxGeometry>
        </mxCell>
        <mxCell id="KqbgtqUS3R-qkDuxuyXO-104" value="Digital I/&lt;span style=&quot;background-color: transparent; color: light-dark(rgb(0, 0, 0), rgb(255, 255, 255));&quot;&gt;O&lt;/span&gt;" style="rounded=1;whiteSpace=wrap;html=1;fillColor=#d5e8d4;strokeColor=#82b366;" vertex="1" parent="1">
          <mxGeometry x="240" y="160" width="50" height="30" as="geometry" />
        </mxCell>
        <mxCell id="KqbgtqUS3R-qkDuxuyXO-113" style="edgeStyle=orthogonalEdgeStyle;shape=connector;curved=0;rounded=0;orthogonalLoop=1;jettySize=auto;html=1;exitX=0.5;exitY=0;exitDx=0;exitDy=0;entryX=0.5;entryY=1;entryDx=0;entryDy=0;strokeColor=default;align=center;verticalAlign=middle;fontFamily=Helvetica;fontSize=11;fontColor=default;labelBackgroundColor=default;startFill=0;endArrow=none;flowAnimation=0;" edge="1" parent="1" source="KqbgtqUS3R-qkDuxuyXO-112" target="805-J8ZQqyjE01Ruiza4-11">
          <mxGeometry relative="1" as="geometry">
            <Array as="points">
              <mxPoint x="450" y="310" />
              <mxPoint x="520" y="310" />
            </Array>
          </mxGeometry>
        </mxCell>
        <mxCell id="KqbgtqUS3R-qkDuxuyXO-116" style="edgeStyle=orthogonalEdgeStyle;shape=connector;curved=0;rounded=0;orthogonalLoop=1;jettySize=auto;html=1;exitX=1;exitY=0.5;exitDx=0;exitDy=0;entryX=0;entryY=0.5;entryDx=0;entryDy=0;strokeColor=default;align=center;verticalAlign=middle;fontFamily=Helvetica;fontSize=11;fontColor=default;labelBackgroundColor=default;startFill=0;endArrow=none;flowAnimation=0;" edge="1" parent="1" source="KqbgtqUS3R-qkDuxuyXO-112" target="805-J8ZQqyjE01Ruiza4-14">
          <mxGeometry relative="1" as="geometry" />
        </mxCell>
        <mxCell id="KqbgtqUS3R-qkDuxuyXO-150" style="edgeStyle=orthogonalEdgeStyle;shape=connector;curved=0;rounded=0;orthogonalLoop=1;jettySize=auto;html=1;exitX=0.5;exitY=1;exitDx=0;exitDy=0;entryX=0.5;entryY=0;entryDx=0;entryDy=0;strokeColor=default;align=center;verticalAlign=middle;fontFamily=Helvetica;fontSize=11;fontColor=default;labelBackgroundColor=default;startFill=0;endArrow=none;flowAnimation=0;" edge="1" parent="1" source="KqbgtqUS3R-qkDuxuyXO-112" target="KqbgtqUS3R-qkDuxuyXO-134">
          <mxGeometry relative="1" as="geometry">
            <Array as="points">
              <mxPoint x="450" y="360" />
              <mxPoint x="483" y="360" />
            </Array>
          </mxGeometry>
        </mxCell>
        <mxCell id="KqbgtqUS3R-qkDuxuyXO-112" value="FAT FS" style="rounded=1;whiteSpace=wrap;html=1;fillColor=#ffe6cc;strokeColor=#d79b00;" vertex="1" parent="1">
          <mxGeometry x="390" y="320" width="120" height="30" as="geometry" />
        </mxCell>
        <mxCell id="KqbgtqUS3R-qkDuxuyXO-115" style="edgeStyle=orthogonalEdgeStyle;shape=connector;curved=0;rounded=1;orthogonalLoop=1;jettySize=auto;html=1;exitX=0.5;exitY=1;exitDx=0;exitDy=0;entryX=1;entryY=0.5;entryDx=0;entryDy=0;strokeColor=default;align=center;verticalAlign=middle;fontFamily=Helvetica;fontSize=11;fontColor=default;labelBackgroundColor=default;startFill=0;endArrow=none;flowAnimation=0;dashed=1;" edge="1" parent="1" source="KqbgtqUS3R-qkDuxuyXO-114" target="805-J8ZQqyjE01Ruiza4-14">
          <mxGeometry relative="1" as="geometry" />
        </mxCell>
        <mxCell id="KqbgtqUS3R-qkDuxuyXO-114" value="Server Application" style="rounded=1;whiteSpace=wrap;html=1;strokeColor=#666666;align=center;verticalAlign=middle;fontFamily=Helvetica;fontSize=11;labelBackgroundColor=none;fillColor=#f5f5f5;fontColor=#333333;" vertex="1" parent="1">
          <mxGeometry x="670" y="10" width="110" height="30" as="geometry" />
        </mxCell>
        <mxCell id="KqbgtqUS3R-qkDuxuyXO-145" style="edgeStyle=orthogonalEdgeStyle;shape=connector;curved=0;rounded=0;orthogonalLoop=1;jettySize=auto;html=1;exitX=0.5;exitY=0;exitDx=0;exitDy=0;entryX=0.5;entryY=1;entryDx=0;entryDy=0;strokeColor=default;align=center;verticalAlign=middle;fontFamily=Helvetica;fontSize=11;fontColor=default;labelBackgroundColor=default;startFill=0;endArrow=none;flowAnimation=0;" edge="1" parent="1" source="KqbgtqUS3R-qkDuxuyXO-141" target="KqbgtqUS3R-qkDuxuyXO-103">
          <mxGeometry relative="1" as="geometry" />
        </mxCell>
        <mxCell id="KqbgtqUS3R-qkDuxuyXO-146" style="edgeStyle=orthogonalEdgeStyle;shape=connector;curved=0;rounded=0;orthogonalLoop=1;jettySize=auto;html=1;exitX=0.5;exitY=0;exitDx=0;exitDy=0;entryX=0.5;entryY=1;entryDx=0;entryDy=0;strokeColor=default;align=center;verticalAlign=middle;fontFamily=Helvetica;fontSize=11;fontColor=default;labelBackgroundColor=default;startFill=0;endArrow=none;flowAnimation=0;" edge="1" parent="1" source="KqbgtqUS3R-qkDuxuyXO-131" target="KqbgtqUS3R-qkDuxuyXO-1">
          <mxGeometry relative="1" as="geometry" />
        </mxCell>
        <mxCell id="KqbgtqUS3R-qkDuxuyXO-147" style="edgeStyle=orthogonalEdgeStyle;shape=connector;curved=0;rounded=0;orthogonalLoop=1;jettySize=auto;html=1;exitX=0.5;exitY=0;exitDx=0;exitDy=0;entryX=0.5;entryY=1;entryDx=0;entryDy=0;strokeColor=default;align=center;verticalAlign=middle;fontFamily=Helvetica;fontSize=11;fontColor=default;labelBackgroundColor=default;startFill=0;endArrow=none;flowAnimation=0;" edge="1" parent="1" source="KqbgtqUS3R-qkDuxuyXO-142" target="KqbgtqUS3R-qkDuxuyXO-104">
          <mxGeometry relative="1" as="geometry" />
        </mxCell>
        <mxCell id="KqbgtqUS3R-qkDuxuyXO-148" style="edgeStyle=orthogonalEdgeStyle;shape=connector;curved=0;rounded=0;orthogonalLoop=1;jettySize=auto;html=1;exitX=0.5;exitY=0;exitDx=0;exitDy=0;entryX=0.5;entryY=1;entryDx=0;entryDy=0;strokeColor=default;align=center;verticalAlign=middle;fontFamily=Helvetica;fontSize=11;fontColor=default;labelBackgroundColor=default;startFill=0;endArrow=none;flowAnimation=0;" edge="1" parent="1" source="KqbgtqUS3R-qkDuxuyXO-132" target="805-J8ZQqyjE01Ruiza4-12">
          <mxGeometry relative="1" as="geometry">
            <Array as="points">
              <mxPoint x="353" y="360" />
              <mxPoint x="340" y="360" />
            </Array>
          </mxGeometry>
        </mxCell>
        <mxCell id="KqbgtqUS3R-qkDuxuyXO-149" style="edgeStyle=orthogonalEdgeStyle;shape=connector;curved=0;rounded=0;orthogonalLoop=1;jettySize=auto;html=1;exitX=0.5;exitY=0;exitDx=0;exitDy=0;entryX=0.5;entryY=1;entryDx=0;entryDy=0;strokeColor=default;align=center;verticalAlign=middle;fontFamily=Helvetica;fontSize=11;fontColor=default;labelBackgroundColor=default;startFill=0;endArrow=none;flowAnimation=0;" edge="1" parent="1" source="KqbgtqUS3R-qkDuxuyXO-133" target="805-J8ZQqyjE01Ruiza4-12">
          <mxGeometry relative="1" as="geometry">
            <Array as="points">
              <mxPoint x="418" y="360" />
              <mxPoint x="340" y="360" />
            </Array>
          </mxGeometry>
        </mxCell>
        <mxCell id="KqbgtqUS3R-qkDuxuyXO-151" style="edgeStyle=orthogonalEdgeStyle;shape=connector;curved=0;rounded=0;orthogonalLoop=1;jettySize=auto;html=1;exitX=0.5;exitY=0;exitDx=0;exitDy=0;entryX=0.5;entryY=1;entryDx=0;entryDy=0;strokeColor=default;align=center;verticalAlign=middle;fontFamily=Helvetica;fontSize=11;fontColor=default;labelBackgroundColor=default;startFill=0;endArrow=none;flowAnimation=0;" edge="1" parent="1" source="KqbgtqUS3R-qkDuxuyXO-135" target="805-J8ZQqyjE01Ruiza4-14">
          <mxGeometry relative="1" as="geometry" />
        </mxCell>
        <mxCell id="KqbgtqUS3R-qkDuxuyXO-156" value="" style="edgeStyle=orthogonalEdgeStyle;shape=connector;curved=0;rounded=0;orthogonalLoop=1;jettySize=auto;html=1;exitX=0.5;exitY=0;exitDx=0;exitDy=0;strokeColor=default;align=center;verticalAlign=middle;fontFamily=Helvetica;fontSize=11;fontColor=default;labelBackgroundColor=default;startFill=0;endArrow=none;flowAnimation=0;" edge="1" parent="1" source="KqbgtqUS3R-qkDuxuyXO-104">
          <mxGeometry relative="1" as="geometry">
            <mxPoint x="265" y="160" as="sourcePoint" />
            <mxPoint x="205" y="160" as="targetPoint" />
            <Array as="points">
              <mxPoint x="265" y="150" />
              <mxPoint x="205" y="150" />
            </Array>
          </mxGeometry>
        </mxCell>
        <mxCell id="KqbgtqUS3R-qkDuxuyXO-155" value="" style="ellipse;whiteSpace=wrap;html=1;aspect=fixed;fontFamily=Helvetica;fontSize=11;fontColor=default;labelBackgroundColor=default;fillColor=#000000;rounded=1;" vertex="1" parent="1">
          <mxGeometry x="202.5" y="148" width="5" height="5" as="geometry" />
        </mxCell>
        <mxCell id="KqbgtqUS3R-qkDuxuyXO-159" value="" style="edgeStyle=orthogonalEdgeStyle;shape=connector;curved=0;rounded=0;orthogonalLoop=1;jettySize=auto;html=1;exitX=0.5;exitY=1;exitDx=0;exitDy=0;entryX=0.5;entryY=0;entryDx=0;entryDy=0;strokeColor=default;align=center;verticalAlign=middle;fontFamily=Helvetica;fontSize=11;fontColor=default;labelBackgroundColor=default;startFill=0;endArrow=none;flowAnimation=0;" edge="1" parent="1" source="805-J8ZQqyjE01Ruiza4-60" target="KqbgtqUS3R-qkDuxuyXO-158">
          <mxGeometry relative="1" as="geometry">
            <mxPoint x="385" y="140" as="sourcePoint" />
            <mxPoint x="520" y="160" as="targetPoint" />
            <Array as="points" />
          </mxGeometry>
        </mxCell>
        <mxCell id="KqbgtqUS3R-qkDuxuyXO-158" value="" style="ellipse;whiteSpace=wrap;html=1;aspect=fixed;fontFamily=Helvetica;fontSize=11;fontColor=default;labelBackgroundColor=default;fillColor=#000000;rounded=1;" vertex="1" parent="1">
          <mxGeometry x="382.5" y="148" width="5" height="5" as="geometry" />
        </mxCell>
        <mxCell id="KqbgtqUS3R-qkDuxuyXO-161" value="" style="edgeStyle=orthogonalEdgeStyle;shape=connector;curved=0;rounded=0;orthogonalLoop=1;jettySize=auto;html=1;exitX=0.5;exitY=0;exitDx=0;exitDy=0;entryX=0.5;entryY=1;entryDx=0;entryDy=0;strokeColor=default;align=center;verticalAlign=middle;fontFamily=Helvetica;fontSize=11;fontColor=default;labelBackgroundColor=default;startFill=0;endArrow=none;flowAnimation=0;" edge="1" parent="1" source="KqbgtqUS3R-qkDuxuyXO-72" target="KqbgtqUS3R-qkDuxuyXO-160">
          <mxGeometry relative="1" as="geometry">
            <mxPoint x="520" y="160" as="sourcePoint" />
            <mxPoint x="565" y="140" as="targetPoint" />
            <Array as="points" />
          </mxGeometry>
        </mxCell>
        <mxCell id="KqbgtqUS3R-qkDuxuyXO-160" value="" style="ellipse;whiteSpace=wrap;html=1;aspect=fixed;fontFamily=Helvetica;fontSize=11;fontColor=default;labelBackgroundColor=default;fillColor=#000000;rounded=1;" vertex="1" parent="1">
          <mxGeometry x="517.5" y="148" width="5" height="5" as="geometry" />
        </mxCell>
        <mxCell id="KqbgtqUS3R-qkDuxuyXO-172" style="edgeStyle=orthogonalEdgeStyle;shape=connector;curved=0;rounded=1;orthogonalLoop=1;jettySize=auto;html=1;exitX=0.5;exitY=0;exitDx=0;exitDy=0;entryX=0.5;entryY=1;entryDx=0;entryDy=0;strokeColor=default;align=center;verticalAlign=middle;fontFamily=Helvetica;fontSize=11;fontColor=default;labelBackgroundColor=default;startFill=0;endArrow=none;flowAnimation=0;" edge="1" parent="1" source="KqbgtqUS3R-qkDuxuyXO-162" target="KqbgtqUS3R-qkDuxuyXO-73">
          <mxGeometry relative="1" as="geometry" />
        </mxCell>
        <mxCell id="KqbgtqUS3R-qkDuxuyXO-176" style="edgeStyle=orthogonalEdgeStyle;shape=connector;curved=0;rounded=1;orthogonalLoop=1;jettySize=auto;html=1;exitX=0.5;exitY=1;exitDx=0;exitDy=0;entryX=0.5;entryY=0;entryDx=0;entryDy=0;strokeColor=default;align=center;verticalAlign=middle;fontFamily=Helvetica;fontSize=11;fontColor=default;labelBackgroundColor=default;startFill=0;endArrow=none;flowAnimation=0;" edge="1" parent="1" source="KqbgtqUS3R-qkDuxuyXO-162" target="805-J8ZQqyjE01Ruiza4-21">
          <mxGeometry relative="1" as="geometry" />
        </mxCell>
        <mxCell id="KqbgtqUS3R-qkDuxuyXO-162" value="" style="ellipse;whiteSpace=wrap;html=1;aspect=fixed;fontFamily=Helvetica;fontSize=11;fontColor=default;labelBackgroundColor=default;fillColor=#000000;rounded=1;" vertex="1" parent="1">
          <mxGeometry x="427.5" y="208" width="5" height="5" as="geometry" />
        </mxCell>
        <mxCell id="KqbgtqUS3R-qkDuxuyXO-171" style="edgeStyle=orthogonalEdgeStyle;shape=connector;curved=0;rounded=1;orthogonalLoop=1;jettySize=auto;html=1;exitX=0;exitY=0.5;exitDx=0;exitDy=0;entryX=1;entryY=0.5;entryDx=0;entryDy=0;strokeColor=default;align=center;verticalAlign=middle;fontFamily=Helvetica;fontSize=11;fontColor=default;labelBackgroundColor=default;startFill=0;endArrow=none;flowAnimation=0;" edge="1" parent="1" source="KqbgtqUS3R-qkDuxuyXO-164" target="KqbgtqUS3R-qkDuxuyXO-162">
          <mxGeometry relative="1" as="geometry" />
        </mxCell>
        <mxCell id="KqbgtqUS3R-qkDuxuyXO-175" style="edgeStyle=orthogonalEdgeStyle;shape=connector;curved=0;rounded=1;orthogonalLoop=1;jettySize=auto;html=1;exitX=0.5;exitY=1;exitDx=0;exitDy=0;entryX=0.5;entryY=0;entryDx=0;entryDy=0;strokeColor=default;align=center;verticalAlign=middle;fontFamily=Helvetica;fontSize=11;fontColor=default;labelBackgroundColor=default;startFill=0;endArrow=none;flowAnimation=0;" edge="1" parent="1" source="KqbgtqUS3R-qkDuxuyXO-164" target="KqbgtqUS3R-qkDuxuyXO-86">
          <mxGeometry relative="1" as="geometry" />
        </mxCell>
        <mxCell id="KqbgtqUS3R-qkDuxuyXO-164" value="" style="ellipse;whiteSpace=wrap;html=1;aspect=fixed;fontFamily=Helvetica;fontSize=11;fontColor=default;labelBackgroundColor=default;fillColor=#000000;rounded=1;" vertex="1" parent="1">
          <mxGeometry x="517.5" y="208" width="5" height="5" as="geometry" />
        </mxCell>
        <mxCell id="KqbgtqUS3R-qkDuxuyXO-170" style="edgeStyle=orthogonalEdgeStyle;shape=connector;curved=0;rounded=1;orthogonalLoop=1;jettySize=auto;html=1;exitX=0;exitY=0.5;exitDx=0;exitDy=0;entryX=1;entryY=0.5;entryDx=0;entryDy=0;strokeColor=default;align=center;verticalAlign=middle;fontFamily=Helvetica;fontSize=11;fontColor=default;labelBackgroundColor=default;startFill=0;endArrow=none;flowAnimation=0;" edge="1" parent="1" source="KqbgtqUS3R-qkDuxuyXO-168" target="KqbgtqUS3R-qkDuxuyXO-164">
          <mxGeometry relative="1" as="geometry" />
        </mxCell>
        <mxCell id="KqbgtqUS3R-qkDuxuyXO-173" style="edgeStyle=orthogonalEdgeStyle;shape=connector;curved=0;rounded=1;orthogonalLoop=1;jettySize=auto;html=1;exitX=0.5;exitY=0;exitDx=0;exitDy=0;entryX=0.5;entryY=1;entryDx=0;entryDy=0;strokeColor=default;align=center;verticalAlign=middle;fontFamily=Helvetica;fontSize=11;fontColor=default;labelBackgroundColor=default;startFill=0;endArrow=none;flowAnimation=0;" edge="1" parent="1" source="KqbgtqUS3R-qkDuxuyXO-168" target="KqbgtqUS3R-qkDuxuyXO-79">
          <mxGeometry relative="1" as="geometry" />
        </mxCell>
        <mxCell id="KqbgtqUS3R-qkDuxuyXO-174" style="edgeStyle=orthogonalEdgeStyle;shape=connector;curved=0;rounded=1;orthogonalLoop=1;jettySize=auto;html=1;exitX=0.5;exitY=1;exitDx=0;exitDy=0;entryX=0.5;entryY=0;entryDx=0;entryDy=0;strokeColor=default;align=center;verticalAlign=middle;fontFamily=Helvetica;fontSize=11;fontColor=default;labelBackgroundColor=default;startFill=0;endArrow=none;flowAnimation=0;" edge="1" parent="1" source="KqbgtqUS3R-qkDuxuyXO-168" target="KqbgtqUS3R-qkDuxuyXO-87">
          <mxGeometry relative="1" as="geometry" />
        </mxCell>
        <mxCell id="KqbgtqUS3R-qkDuxuyXO-168" value="" style="ellipse;whiteSpace=wrap;html=1;aspect=fixed;fontFamily=Helvetica;fontSize=11;fontColor=default;labelBackgroundColor=default;fillColor=#000000;rounded=1;" vertex="1" parent="1">
          <mxGeometry x="607.5" y="208" width="5" height="5" as="geometry" />
        </mxCell>
        <mxCell id="KqbgtqUS3R-qkDuxuyXO-178" value="" style="edgeStyle=orthogonalEdgeStyle;shape=connector;curved=0;rounded=0;orthogonalLoop=1;jettySize=auto;html=1;exitX=0.5;exitY=0;exitDx=0;exitDy=0;strokeColor=default;align=center;verticalAlign=middle;fontFamily=Helvetica;fontSize=11;fontColor=default;labelBackgroundColor=default;startFill=0;endArrow=none;flowAnimation=0;" edge="1" parent="1" source="KqbgtqUS3R-qkDuxuyXO-140" target="KqbgtqUS3R-qkDuxuyXO-177">
          <mxGeometry relative="1" as="geometry">
            <mxPoint x="613" y="380" as="sourcePoint" />
            <mxPoint x="595" y="350" as="targetPoint" />
          </mxGeometry>
        </mxCell>
        <mxCell id="KqbgtqUS3R-qkDuxuyXO-177" value="" style="ellipse;whiteSpace=wrap;html=1;aspect=fixed;fontFamily=Helvetica;fontSize=11;fontColor=default;labelBackgroundColor=default;fillColor=#000000;rounded=1;" vertex="1" parent="1">
          <mxGeometry x="592.5" y="358" width="5" height="5" as="geometry" />
        </mxCell>
        <mxCell id="805-J8ZQqyjE01Ruiza4-73" value="Legend" style="rounded=1;whiteSpace=wrap;html=1;align=center;verticalAlign=top;fontFamily=Helvetica;fontSize=11;labelBackgroundColor=none;" parent="1" vertex="1">
          <mxGeometry x="10" y="10" width="90" height="540" as="geometry" />
        </mxCell>
        <mxCell id="805-J8ZQqyjE01Ruiza4-40" value="&lt;div&gt;Extern Libs&lt;/div&gt;" style="rounded=1;whiteSpace=wrap;html=1;fontFamily=Helvetica;fontSize=11;labelBackgroundColor=none;fillColor=#ffe6cc;strokeColor=#d79b00;" parent="1" vertex="1">
          <mxGeometry x="20" y="60" width="70" height="30" as="geometry" />
        </mxCell>
        <mxCell id="805-J8ZQqyjE01Ruiza4-43" value="Peripheral OO Classes" style="rounded=1;whiteSpace=wrap;html=1;fontFamily=Helvetica;fontSize=11;labelBackgroundColor=none;fillColor=#d5e8d4;strokeColor=#82b366;" parent="1" vertex="1">
          <mxGeometry x="20" y="100" width="70" height="30" as="geometry" />
        </mxCell>
        <mxCell id="805-J8ZQqyjE01Ruiza4-44" value="Low level abstraction" style="rounded=1;whiteSpace=wrap;html=1;strokeColor=#6c8ebf;align=center;verticalAlign=middle;fontFamily=Helvetica;fontSize=11;fontColor=default;labelBackgroundColor=none;fillColor=#dae8fc;" parent="1" vertex="1">
          <mxGeometry x="20" y="180" width="70" height="30" as="geometry" />
        </mxCell>
        <mxCell id="805-J8ZQqyjE01Ruiza4-54" value="Data processing" style="rounded=1;whiteSpace=wrap;html=1;strokeColor=#9673a6;align=center;verticalAlign=middle;fontFamily=Helvetica;fontSize=11;labelBackgroundColor=none;fillColor=#e1d5e7;" parent="1" vertex="1">
          <mxGeometry x="20" y="140" width="70" height="30" as="geometry" />
        </mxCell>
        <mxCell id="KqbgtqUS3R-qkDuxuyXO-181" value="Function Prep" style="rounded=1;whiteSpace=wrap;html=1;align=center;verticalAlign=middle;fontFamily=Helvetica;fontSize=11;labelBackgroundColor=none;" vertex="1" parent="1">
          <mxGeometry x="20" y="220" width="70" height="30" as="geometry" />
        </mxCell>
      </root>
    </mxGraphModel>
  </diagram>
</mxfile>
